<?xml version="1.0" encoding="UTF-8" standalone="no"?>
<!-- Created with Inkscape (http://www.inkscape.org/) -->

<svg
   width="32"
   height="32"
   viewBox="0 0 32 32"
   version="1.1"
   id="svg1"
   inkscape:version="1.4.4 (dcaf3e7d9e, 2026-05-05)"
   sodipodi:docname="icon.svg"
   xmlns:inkscape="http://www.inkscape.org/namespaces/inkscape"
   xmlns:sodipodi="http://sodipodi.sourceforge.net/DTD/sodipodi-0.dtd"
   xmlns="http://www.w3.org/2000/svg"
   xmlns:svg="http://www.w3.org/2000/svg">
  <sodipodi:namedview
     id="namedview1"
     pagecolor="#505050"
     bordercolor="#eeeeee"
     borderopacity="1"
     inkscape:showpageshadow="0"
     inkscape:pageopacity="0"
     inkscape:pagecheckerboard="0"
     inkscape:deskcolor="#505050"
     inkscape:document-units="px"
     inkscape:zoom="16"
     inkscape:cx="8.125"
     inkscape:cy="19.59375"
     inkscape:window-width="1918"
     inkscape:window-height="1052"
     inkscape:window-x="0"
     inkscape:window-y="0"
     inkscape:window-maximized="1"
     inkscape:current-layer="layer1" />
  <defs
     id="defs1" />
  <g
     inkscape:label="Layer 1"
     inkscape:groupmode="layer"
     id="layer1">
    <path
       style="font-size:48px;font-family:Monospace;-inkscape-font-specification:Monospace"
       d="M 4.4799998,27.981593 V 4.4984075 h 3.744 c 0,0 0.72,1.36 1.488,0.624 0.8000002,-0.736 1.8080002,-1.104 3.0240002,-1.104 1.152,0 2.128,0.336 2.928,1.008 0.8,0.672 2.496,0.672 3.264,0 0.8,-0.672 1.808,-1.008 3.024,-1.008 1.696,0 3.04,0.64 4.032,1.92 1.024,1.248 1.536,2.88 1.536,4.8960005 V 27.981593 H 23.488 V 10.786408 c 0,-1.0560005 -0.256,-1.8880005 -0.768,-2.4960005 -0.512,-0.64 -1.216,-0.96 -2.112,-0.96 -0.864,0 -1.552,0.304 -2.064,0.912 -0.512,0.608 -0.768,1.44 -0.768,2.4960005 V 27.981593 H 14.224 V 10.786408 c 0,-1.0560005 -0.256,-1.8880005 -0.768,-2.4960005 -0.512,-0.64 -1.2,-0.96 -2.064,-0.96 -0.896,0 -1.6000002,0.304 -2.1120002,0.912 -0.512,0.608 -0.768,1.44 -0.768,2.4960005 v 17.243185 z"
       id="text2"
       aria-label="m"
       sodipodi:nodetypes="ccccsscscsccscsssccscssscc" />
    <text
       xml:space="preserve"
       style="font-style:normal;font-variant:normal;font-weight:normal;font-stretch:normal;font-size:48px;font-family:Monospace;-inkscape-font-specification:Monospace;writing-mode:lr-tb;direction:ltr;fill:#000000"
       x="-171.11984"
       y="24.041632"
       id="text3"><tspan
         sodipodi:role="line"
         id="tspan2"
         x="-171.11984"
         y="24.041632" /></text>
  </g>
</svg>
